<svg width="109" height="79" viewBox="0 0 109 79" fill="none" xmlns="http://www.w3.org/2000/svg">
<g clip-path="url(#clip0_5_12)">
<path d="M69 5.39471H79L54 52.4659L29 5.39471H48.125L54 16.3098L59.75 5.39471H69Z" fill="#F3F4F4"/>
<path d="M29 5.88889L54 52.9601L79 5.88889H69L54 34.1316L38.875 5.88889H29Z" fill="#409EFF"/>
<path d="M38.875 5.39471L54 33.7739L69 5.39471H59.75L54 16.3098L48.125 5.39471H38.875Z" fill="#97CAFF"/>
</g>
<path d="M10.7227 74L9.32617 70.0352H3.86719L2.4707 74H0L5.3125 59.6641H7.91016L13.2129 74H10.7227ZM8.7207 68.0234L7.36328 64.1172C7.3112 63.9479 7.23633 63.7103 7.13867 63.4043C7.04102 63.0918 6.94336 62.776 6.8457 62.457C6.74805 62.1315 6.66667 61.8581 6.60156 61.6367C6.53646 61.9036 6.45508 62.2031 6.35742 62.5352C6.26628 62.8607 6.17513 63.1667 6.08398 63.4531C5.99935 63.7396 5.93424 63.9609 5.88867 64.1172L4.52148 68.0234H8.7207ZM19.2188 74.1953C18.1966 74.1953 17.3112 73.9967 16.5625 73.5996C15.8138 73.2025 15.2376 72.5938 14.834 71.7734C14.4303 70.9531 14.2285 69.9115 14.2285 68.6484C14.2285 67.3333 14.4499 66.2591 14.8926 65.4258C15.3353 64.5924 15.9473 63.9772 16.7285 63.5801C17.5163 63.1829 18.418 62.9844 19.4336 62.9844C20.0781 62.9844 20.6608 63.0495 21.1816 63.1797C21.709 63.3034 22.1549 63.4564 22.5195 63.6387L21.8359 65.4746C21.4388 65.3118 21.0319 65.1751 20.6152 65.0645C20.1986 64.9538 19.7982 64.8984 19.4141 64.8984C18.7826 64.8984 18.2552 65.0384 17.832 65.3184C17.4154 65.5983 17.1029 66.015 16.8945 66.5684C16.6927 67.1217 16.5918 67.8086 16.5918 68.6289C16.5918 69.4232 16.696 70.0938 16.9043 70.6406C17.1126 71.181 17.4219 71.5911 17.832 71.8711C18.2422 72.1445 18.7467 72.2812 19.3457 72.2812C19.9382 72.2812 20.4688 72.2096 20.9375 72.0664C21.4062 71.9232 21.849 71.7376 22.2656 71.5098V73.502C21.8555 73.7363 21.416 73.9089 20.9473 74.0195C20.4785 74.1367 19.9023 74.1953 19.2188 74.1953ZM29.1602 74.1953C28.138 74.1953 27.2526 73.9967 26.5039 73.5996C25.7552 73.2025 25.179 72.5938 24.7754 71.7734C24.3717 70.9531 24.1699 69.9115 24.1699 68.6484C24.1699 67.3333 24.3913 66.2591 24.834 65.4258C25.2767 64.5924 25.8887 63.9772 26.6699 63.5801C27.4577 63.1829 28.3594 62.9844 29.375 62.9844C30.0195 62.9844 30.6022 63.0495 31.123 63.1797C31.6504 63.3034 32.0964 63.4564 32.4609 63.6387L31.7773 65.4746C31.3802 65.3118 30.9733 65.1751 30.5566 65.0645C30.14 64.9538 29.7396 64.8984 29.3555 64.8984C28.724 64.8984 28.1966 65.0384 27.7734 65.3184C27.3568 65.5983 27.0443 66.015 26.8359 66.5684C26.6341 67.1217 26.5332 67.8086 26.5332 68.6289C26.5332 69.4232 26.6374 70.0938 26.8457 70.6406C27.054 71.181 27.3633 71.5911 27.7734 71.8711C28.1836 72.1445 28.6882 72.2812 29.2871 72.2812C29.8796 72.2812 30.4102 72.2096 30.8789 72.0664C31.3477 71.9232 31.7904 71.7376 32.207 71.5098V73.502C31.7969 73.7363 31.3574 73.9089 30.8887 74.0195C30.4199 74.1367 29.8438 74.1953 29.1602 74.1953ZM44.3164 68.5703C44.3164 69.4688 44.1992 70.2663 43.9648 70.9629C43.7305 71.6595 43.3887 72.2487 42.9395 72.7305C42.4902 73.2057 41.9499 73.5703 41.3184 73.8242C40.6868 74.0716 39.974 74.1953 39.1797 74.1953C38.4375 74.1953 37.7572 74.0716 37.1387 73.8242C36.5202 73.5703 35.9831 73.2057 35.5273 72.7305C35.0781 72.2487 34.7298 71.6595 34.4824 70.9629C34.235 70.2663 34.1113 69.4688 34.1113 68.5703C34.1113 67.3789 34.3164 66.3698 34.7266 65.543C35.1432 64.7096 35.7357 64.0749 36.5039 63.6387C37.2721 63.2025 38.1868 62.9844 39.248 62.9844C40.2441 62.9844 41.123 63.2025 41.8848 63.6387C42.6465 64.0749 43.2422 64.7096 43.6719 65.543C44.1016 66.3763 44.3164 67.3854 44.3164 68.5703ZM36.4746 68.5703C36.4746 69.3581 36.569 70.0319 36.7578 70.5918C36.9531 71.1517 37.2526 71.5814 37.6562 71.8809C38.0599 72.1738 38.5807 72.3203 39.2188 72.3203C39.8568 72.3203 40.3776 72.1738 40.7812 71.8809C41.1849 71.5814 41.4811 71.1517 41.6699 70.5918C41.8587 70.0319 41.9531 69.3581 41.9531 68.5703C41.9531 67.7826 41.8587 67.1152 41.6699 66.5684C41.4811 66.015 41.1849 65.5951 40.7812 65.3086C40.3776 65.0156 39.8535 64.8691 39.209 64.8691C38.2585 64.8691 37.5651 65.1882 37.1289 65.8262C36.6927 66.4642 36.4746 67.3789 36.4746 68.5703ZM56.377 63.1895V74H54.5703L54.2578 72.5449H54.1309C53.903 72.916 53.6133 73.2253 53.2617 73.4727C52.9102 73.7135 52.5195 73.8926 52.0898 74.0098C51.6602 74.1335 51.2077 74.1953 50.7324 74.1953C49.9186 74.1953 49.222 74.0586 48.6426 73.7852C48.0697 73.5052 47.6302 73.0755 47.3242 72.4961C47.0182 71.9167 46.8652 71.168 46.8652 70.25V63.1895H49.1699V69.8203C49.1699 70.6602 49.3392 71.2884 49.6777 71.7051C50.0228 72.1217 50.5566 72.3301 51.2793 72.3301C51.9759 72.3301 52.5293 72.1868 52.9395 71.9004C53.3496 71.6139 53.6393 71.1908 53.8086 70.6309C53.9844 70.071 54.0723 69.3841 54.0723 68.5703V63.1895H56.377ZM65.3027 62.9844C66.5202 62.9844 67.4674 63.3001 68.1445 63.9316C68.8281 64.5566 69.1699 65.5625 69.1699 66.9492V74H66.875V67.3789C66.875 66.5391 66.7025 65.9108 66.3574 65.4941C66.0124 65.071 65.4785 64.8594 64.7559 64.8594C63.7077 64.8594 62.9785 65.1816 62.5684 65.8262C62.1647 66.4707 61.9629 67.4049 61.9629 68.6289V74H59.668V63.1895H61.4551L61.7773 64.6543H61.9043C62.1387 64.2767 62.4284 63.9674 62.7734 63.7266C63.125 63.4792 63.5156 63.2936 63.9453 63.1699C64.3815 63.0462 64.834 62.9844 65.3027 62.9844ZM76.4062 72.3398C76.7057 72.3398 77.002 72.3138 77.2949 72.2617C77.5879 72.2031 77.8548 72.1348 78.0957 72.0566V73.7949C77.8418 73.9056 77.513 74 77.1094 74.0781C76.7057 74.1562 76.2858 74.1953 75.8496 74.1953C75.2376 74.1953 74.6875 74.0944 74.1992 73.8926C73.7109 73.6842 73.3236 73.3294 73.0371 72.8281C72.7507 72.3268 72.6074 71.6335 72.6074 70.748V64.9375H71.1328V63.9121L72.7148 63.1016L73.4668 60.7871H74.9121V63.1895H78.0078V64.9375H74.9121V70.7188C74.9121 71.2656 75.0488 71.6725 75.3223 71.9395C75.5957 72.2064 75.957 72.3398 76.4062 72.3398ZM82.5879 63.1895V74H80.293V63.1895H82.5879ZM81.4551 59.0488C81.8066 59.0488 82.1094 59.1432 82.3633 59.332C82.6237 59.5208 82.7539 59.8464 82.7539 60.3086C82.7539 60.7643 82.6237 61.0898 82.3633 61.2852C82.1094 61.474 81.8066 61.5684 81.4551 61.5684C81.0905 61.5684 80.7812 61.474 80.5273 61.2852C80.2799 61.0898 80.1562 60.7643 80.1562 60.3086C80.1562 59.8464 80.2799 59.5208 80.5273 59.332C80.7812 59.1432 81.0905 59.0488 81.4551 59.0488ZM91.5137 62.9844C92.7311 62.9844 93.6784 63.3001 94.3555 63.9316C95.0391 64.5566 95.3809 65.5625 95.3809 66.9492V74H93.0859V67.3789C93.0859 66.5391 92.9134 65.9108 92.5684 65.4941C92.2233 65.071 91.6895 64.8594 90.9668 64.8594C89.9186 64.8594 89.1895 65.1816 88.7793 65.8262C88.3757 66.4707 88.1738 67.4049 88.1738 68.6289V74H85.8789V63.1895H87.666L87.9883 64.6543H88.1152C88.3496 64.2767 88.6393 63.9674 88.9844 63.7266C89.3359 63.4792 89.7266 63.2936 90.1562 63.1699C90.5924 63.0462 91.0449 62.9844 91.5137 62.9844ZM101.68 78.8047C100.215 78.8047 99.0918 78.541 98.3105 78.0137C97.5293 77.4863 97.1387 76.7474 97.1387 75.7969C97.1387 75.1328 97.347 74.5697 97.7637 74.1074C98.1803 73.6517 98.776 73.3359 99.5508 73.1602C99.2578 73.0299 99.0039 72.8281 98.7891 72.5547C98.5807 72.2747 98.4766 71.9655 98.4766 71.627C98.4766 71.2233 98.5905 70.8783 98.8184 70.5918C99.0462 70.3053 99.388 70.0286 99.8438 69.7617C99.2773 69.5208 98.8216 69.1302 98.4766 68.5898C98.138 68.043 97.9688 67.4017 97.9688 66.666C97.9688 65.8848 98.1348 65.2207 98.4668 64.6738C98.7988 64.1204 99.2839 63.7005 99.9219 63.4141C100.56 63.1211 101.331 62.9746 102.236 62.9746C102.432 62.9746 102.643 62.9876 102.871 63.0137C103.105 63.0332 103.32 63.0592 103.516 63.0918C103.717 63.1178 103.87 63.1471 103.975 63.1797H107.715V64.459L105.879 64.8008C106.055 65.0482 106.195 65.3314 106.299 65.6504C106.403 65.9629 106.455 66.3047 106.455 66.6758C106.455 67.7956 106.068 68.6777 105.293 69.3223C104.525 69.9603 103.464 70.2793 102.109 70.2793C101.784 70.2663 101.468 70.2402 101.162 70.2012C100.928 70.3444 100.749 70.5039 100.625 70.6797C100.501 70.849 100.439 71.041 100.439 71.2559C100.439 71.4316 100.501 71.5749 100.625 71.6855C100.749 71.7897 100.931 71.8678 101.172 71.9199C101.419 71.972 101.719 71.998 102.07 71.998H103.936C105.12 71.998 106.025 72.2487 106.65 72.75C107.275 73.2513 107.588 73.987 107.588 74.957C107.588 76.1875 107.08 77.1348 106.064 77.7988C105.049 78.4694 103.587 78.8047 101.68 78.8047ZM101.768 77.1934C102.568 77.1934 103.242 77.1152 103.789 76.959C104.336 76.8027 104.749 76.5781 105.029 76.2852C105.309 75.9987 105.449 75.6569 105.449 75.2598C105.449 74.9082 105.361 74.638 105.186 74.4492C105.01 74.2604 104.746 74.1302 104.395 74.0586C104.043 73.987 103.607 73.9512 103.086 73.9512H101.387C100.964 73.9512 100.589 74.0163 100.264 74.1465C99.9382 74.2832 99.6842 74.4785 99.502 74.7324C99.3262 74.9863 99.2383 75.2923 99.2383 75.6504C99.2383 76.1452 99.4564 76.526 99.8926 76.793C100.335 77.0599 100.96 77.1934 101.768 77.1934ZM102.217 68.7754C102.887 68.7754 103.385 68.5931 103.711 68.2285C104.036 67.8574 104.199 67.3366 104.199 66.666C104.199 65.9368 104.03 65.39 103.691 65.0254C103.359 64.6608 102.865 64.4785 102.207 64.4785C101.562 64.4785 101.071 64.6641 100.732 65.0352C100.4 65.4062 100.234 65.9564 100.234 66.6855C100.234 67.3431 100.4 67.8574 100.732 68.2285C101.071 68.5931 101.566 68.7754 102.217 68.7754Z" fill="#606266"/>
<defs>
<clipPath id="clip0_5_12">
<rect width="50" height="53" fill="white" transform="translate(29)"/>
</clipPath>
</defs>
</svg>
